<svg xmlns="http://www.w3.org/2000/svg" viewBox="0 0 50.62 42.52"><defs><style>.cls-1{fill:#a5a5a5}</style></defs><g id="图层_2" data-name="图层 2"><g id="图层_1-2" data-name="图层 1"><path class="cls-1" d="M40 39.86a2.6 2.6 0 102.6-2.66 2.63 2.63 0 00-2.6 2.66zm5.43-7.97H15.57S10 13.84 6.49 1.34C6-.24 5.14 0 3.89 0H2.6C1.15 0 0 0 0 1.34s1.25 1.33 2.6 1.33h1.29c1.26 0 10.39 31.88 10.39 31.88h31.15a1.33 1.33 0 000-2.66z"/><path class="cls-1" d="M18.17 29.24h26.97l5.48-19.93H11.68l6.49 19.93zM14 39.86a2.6 2.6 0 102.6-2.66 2.63 2.63 0 00-2.6 2.66z"/></g></g></svg>