<svg xmlns="http://www.w3.org/2000/svg" viewBox="0 0 59.43 59.43"><defs><clipPath id="a"><path d="M42.68 30l-11.26 8.34a1.15 1.15 0 01-.72.24 1.19 1.19 0 01-1.18-1.09v-4.14h-3.13a14.59 14.59 0 00-10 4 .48.48 0 01-.3.11.49.49 0 01-.5-.49v-.08a14.83 14.83 0 0114-11.63v-4.19A1.19 1.19 0 0130.7 20a1.15 1.15 0 01.7.23l11.29 8.4a.94.94 0 01.31.67.88.88 0 01-.32.7zm-13-21.49A21.26 21.26 0 1051 29.72 21.25 21.25 0 0029.72 8.46z" fill="none"/></clipPath></defs><g data-name="图层 2"><g clip-path="url(#a)" data-name="图层 1"><path fill="#040000" d="M0 0h59.43v59.43H0z"/></g></g></svg>