<svg xmlns="http://www.w3.org/2000/svg" viewBox="0 0 173.67 42.31"><g data-name="图层 2"><path d="M42 .24l-2.09 5.14h5.71l-.94 5.31H28.85l-1.71 9.69h16.59l-.94 5.32H29.22l10.56 12.59-.71 4h-7.36l-10-12.18-14.44 12.2H0l.71-4 15-12.59H2.13l.94-5.32h16.55l1.71-9.69H5.53l.94-5.31h5.71L11.87.24h7.69l.27 5.14h12.39L34.34.24zm3.78 26.11h7.39l-5 15.84H40.8zm.64-2.66l.14-10.57H54l-.14 10.57zm2.37-13V.12h7.41v10.57zm36.44 9.93l-.94 5.32H73.66l-1.92 10.87h11.47l-.94 5.32H51.9l.94-5.32h11.34l1.92-10.87H55.47l.94-5.32H67l2-10.87H57.74l.94-5.32h10.88L69.62 0h7.94l-.06 4.43h11.17l-.94 5.32H76.52L74.6 20.62zM111.43.35l-.93 5.32-6.57.3-1 5.49h9.67L113.21.3h7.48l-.54 11.16h9l-.93 5.32h-8.28l-.37 8.1 8.06-4.79-1.09 6.2-7.27 4.32L119 37h5l-1 5.31h-11.91l.33-7.09-7.88 4.66 1.08-6.14 7.09-4.2.65-12.76H102l-1.47 8.33 7.45-2-.94 5.32-7.45 2-1 5.49-2.51 6.39h-7.8l2.82-6.44.58-3.31-6.53 1.77.94-5.33 6.53-1.77 1.85-10.46h-6.64l.94-5.32h6.63l.91-5.14-5.5.24.94-5.32zm17.25.6l-.16 8.74h-5.83l.15-8.69zm14.64-.89l-4.57 12.35h1.34l-5.27 29.9h-7.56l4.22-23.93h-2.6l6.8-18.32zm-.51 10.28h7.56l-5.63 32h-7.57zm8-2.54h-7.51l.82-7.74h7.52zm22.85-6.68l-6.24 35.4-1.78 5.79H158l1.89-6 5.27-29.9h-12.8l.94-5.32z" fill="#fff" data-name="图层 1"/></g></svg>