<svg xmlns="http://www.w3.org/2000/svg" viewBox="0 0 34.02 155.91"><defs><style>.cls-3{fill:#fff}</style></defs><g id="图层_2" data-name="图层 2"><g id="图层_1-2" data-name="图层 1"><rect width="34.02" height="155.91" rx="17.01" fill="#040000" opacity=".5"/><path class="cls-3" d="M22.22 78.29a.92.92 0 10.92-.94.94.94 0 00-.92.94zm1.94-2.83H13.55s-2-6.42-3.24-10.87c-.15-.56-.48-.47-.92-.47h-.46c-.51 0-.92 0-.92.47s.44.47.92.47h.46c.45 0 3.69 11.34 3.69 11.34h11.08a.47.47 0 000-.94z"/><path class="cls-3" d="M14.47 74.51h9.59l1.95-7.08H12.16l2.31 7.08zM13 78.29a.93.93 0 101.85 0 .93.93 0 10-1.85 0zM23.58 123a6.63 6.63 0 00-13.14 0 .93.93 0 00-.76.91.93.93 0 001.85 0 .94.94 0 00-.63-.88 6.17 6.17 0 0112.22 0 .93.93 0 000 1.76 6.2 6.2 0 01-4.65 5.12.73.73 0 00-.6-.32h-1.72a.72.72 0 00-.72.72.73.73 0 00.72.73h1.72a.73.73 0 00.72-.69 6.65 6.65 0 005-5.53.92.92 0 000-1.82zm-1.72.91a4.85 4.85 0 10-4.86 4.87 4.85 4.85 0 004.86-4.85zM25 28.5a1.2 1.2 0 00.81-.3.94.94 0 000-1.43l-8-7.08a1.17 1.17 0 00-.8-.3 1.15 1.15 0 00-.8.3l-8 7.08a1 1 0 00-.34.71.92.92 0 00.34.72 1.17 1.17 0 00.8.3zm1.25 21.07H8.3c-.11 0-.19-.12-.19-.25s.08-.25.19-.25h18c.11 0 .19.11.19.25s-.13.25-.24.25zm0 54.31H8.3c-.11 0-.19-.11-.19-.25s.08-.25.19-.25h18c.11 0 .19.11.19.25s-.13.25-.24.25z"/><path d="M6.91 39l.41.25a3.22 3.22 0 001.52.24 20.78 20.78 0 002.16-.12 1.47 1.47 0 00-.14.45c-.43 0-1.45.07-2 .07a3.45 3.45 0 01-1.6-.28c-.25-.14-.44-.31-.57-.31s-.45.32-.71.65l-.28-.39a2.28 2.28 0 01.79-.56v-1.68h-.73v-.41h1.15zm-.21-2.87a11.29 11.29 0 00-.79-.94l.34-.19c.26.27.63.66.81.89zm1.41.5A4 4 0 017.43 39a2.25 2.25 0 00-.36-.24 3.72 3.72 0 00.62-2.34v-1.23a16.05 16.05 0 002.76-.33l.36.34a14.65 14.65 0 01-2.7.35v.69h2.25l.26.1A4.29 4.29 0 019.76 38a12.15 12.15 0 01.92.83l-.33.3a10.35 10.35 0 00-.87-.84 4.23 4.23 0 01-1.34.85 1.36 1.36 0 00-.24-.35A3.74 3.74 0 009.17 38c-.32-.27-.64-.54-.93-.76l.3-.25c.28.21.59.47.91.72a3.46 3.46 0 00.65-1.08zM16.53 35v5h-.45v-.31h-3.91V40h-.43v-5zm-.45 4.32v-3.89h-3.91v3.89zm-.84-3v2.09H13v-2.08zm-.42.39h-1.4V38h1.4zm3.85-1.13v3.71c0 .27-.07.39-.24.46a2.43 2.43 0 01-.9.09 2.5 2.5 0 00-.16-.43h.74c.1 0 .13 0 .13-.12v-3.71h-.93v-.4h2.13v.4zm2.6 2.32A2.14 2.14 0 0119.6 40a2 2 0 00-.26-.33c1.41-.46 1.51-1.22 1.51-1.81v-1.12h.42zm-.66-1.9a5.69 5.69 0 00.16-.59h-1.22V35h3v.38h-1.32c-.06.2-.14.41-.21.59h1.32v2.7h-.42v-2.3h-1.73v2.33h-.41V36zm.78 2.8a8.82 8.82 0 011.19.94l-.29.32a8.53 8.53 0 00-1.19-1zm4.37-2.8c-.13.34-.29.73-.44 1h.82v.4h-3V37h1.77a8 8 0 00.42-1.12zm.25-.12H23.3v-.4h1.2a6.07 6.07 0 00-.24-.59l.38-.11a5.81 5.81 0 01.31.7H26zm-2.54 2.07h2.4V40h-.42v-.23h-1.57V40h-.41zM24 37a4.54 4.54 0 00-.35-1l.37-.09a4.29 4.29 0 01.38 1zm-.13 1.33v1.05h1.57V38.3zm4.4-3c-.21.52-.47 1.18-.71 1.71a2 2 0 01.64 1.4.87.87 0 01-.26.73.74.74 0 01-.36.12 3.93 3.93 0 01-.49 0 1.07 1.07 0 00-.12-.41h.45a.86.86 0 00.23-.06.56.56 0 00.15-.45 1.88 1.88 0 00-.65-1.37c.21-.48.44-1.1.59-1.54h-.91V40h-.39v-5h1.55zM9.94 86.69a2.88 2.88 0 01-1.13 2.57 1.54 1.54 0 00-.25-.26 2.46 2.46 0 001-2.31v-1.51h.35zm-.79 1.13h-.34v-3.48h1.9v3.46h-.35v-3.07H9.15zm1 .13a8.74 8.74 0 01.79 1l-.3.23a6.52 6.52 0 00-.79-1zm3.56-3a2.13 2.13 0 010 .22c-.08 2.73-.14 3.62-.35 3.9a.57.57 0 01-.42.24 6.34 6.34 0 01-.74 0 1 1 0 00-.12-.43h.7a.2.2 0 00.21-.1c.16-.19.24-1.07.31-3.46h-1.69a6.69 6.69 0 01-.53.9 2.18 2.18 0 00-.34-.26 5.16 5.16 0 00.88-2l.41.1c-.07.27-.16.55-.26.82zm-1 3.14a3.6 3.6 0 00-.08-.37 7.45 7.45 0 00-1.45.36 1.49 1.49 0 00-.13-.37c.09 0 .16-.16.25-.35a8.79 8.79 0 00.47-1.58l.39.12a11 11 0 01-.58 1.68l.94-.19c-.08-.25-.18-.51-.27-.73l.3-.09a9.34 9.34 0 01.45 1.34zm3.1-.92v2.11h-.4v-2l-.95.3-.12-.41c.29-.09.66-.18 1.07-.31v-1.27h-.53a5.22 5.22 0 01-.25.86 2.23 2.23 0 00-.33-.2 6.77 6.77 0 00.4-1.92l.37.06c0 .26-.07.53-.11.78h.45V84h.4v1.17h.59v.42h-.59v1.18l.67-.21.06.38zM19.59 85v.22c-.13 2.62-.26 3.51-.49 3.8a.49.49 0 01-.4.22 2.88 2.88 0 01-.66 0 1 1 0 00-.12-.42h.61a.23.23 0 00.21-.1c.19-.2.31-1.06.43-3.35h-.28A6.6 6.6 0 0117 89.18a1.58 1.58 0 00-.36-.26 5.89 5.89 0 001.87-3.56h-.47A5.63 5.63 0 0116.62 88a1.87 1.87 0 00-.34-.25 4.85 4.85 0 001.4-2.37h-.5a4.45 4.45 0 01-.66 1.1 2.85 2.85 0 00-.33-.25 4.91 4.91 0 001-2.22l.4.08a7.71 7.71 0 01-.26.89h2.25zm5.74 3.19h-2v1.09h-.45v-1.09h-2.6v-.43h2.55v-.87h-1.32a1.35 1.35 0 00-.62.08 4.06 4.06 0 00-.16-.44c.13 0 .25-.2.4-.45s.26-.44.45-.83h-1.22v-.42h1.42c.12-.28.25-.58.35-.87l.48.14c-.11.25-.21.49-.33.73h2.94v.42h-3.14a12.51 12.51 0 01-.72 1.23h1.47v-.87h.45v.87h1.57v.41h-1.57v.87h2zm-9.64 49.52a3.79 3.79 0 01-1.15 1.1 7.82 7.82 0 002.24.62 1.76 1.76 0 00-.27.4 5.28 5.28 0 01-.81-.16v1.7h-.43v-.19H13v.2h-.41v-1.68c-.31.09-.61.16-.92.22a1.65 1.65 0 00-.2-.37 8.58 8.58 0 002.27-.72 5 5 0 01-.76-.67 5.53 5.53 0 01-.9.56 1.22 1.22 0 00-.29-.31 3.84 3.84 0 001.64-1.29l.46.08c-.08.12-.17.23-.26.34h1.79zm-3.58 0h-.43v-1.08H14c-.08-.15-.17-.33-.26-.47l.42-.1a6.59 6.59 0 01.34.57h2.06v1.08h-.46V137h-4zm3.37 1.91a6.34 6.34 0 01-1.36-.55 7.36 7.36 0 01-1.29.55zm-.21 1.2V140H13v.83zm-2-2.9a3.8 3.8 0 00.86.7 4 4 0 00.91-.73h-1.75zm6.05 2.95c0 .23-.05.36-.2.43a1.81 1.81 0 01-.76.08 1.62 1.62 0 00-.13-.41h.58c.08 0 .11 0 .11-.11v-1.42H18a5.52 5.52 0 01-.44 1.95 1.21 1.21 0 00-.35-.21 6.78 6.78 0 00.43-2.81v-2.06h1.67zm-.4-1.84v-1H18v.97zm-.92-2.32v.95h.88v-.95zm4.39 1.64a4.82 4.82 0 01-.8 2 3.2 3.2 0 001 .76 1.48 1.48 0 00-.28.33 3.61 3.61 0 01-.93-.78 3.61 3.61 0 01-.88.74 1.61 1.61 0 00-.25-.32 2.9 2.9 0 00.88-.74 6.15 6.15 0 01-.77-1.61h-.14v2.7h-.41v-5h2.44v1.11c0 .22-.05.33-.22.39a3.54 3.54 0 01-.91.06 1.28 1.28 0 00-.14-.37h.74c.1 0 .12 0 .12-.09v-.7h-1.61v1.55h1.95zm-1.68.33a5 5 0 00.63 1.29 4.23 4.23 0 00.58-1.29z" fill="#fdfdfd"/></g></g></svg>