<svg version="1.1" id="图层_1" xmlns="http://www.w3.org/2000/svg" x="0" y="0" viewBox="0 0 42.7 42.5" xml:space="preserve"><style>.st0{fill:#9c999a}</style><path class="st0" d="M14.1 14.2c-.7 0-1.5.5-1.5 1.2s.7 1.2 1.5 1.2h.2c.6 0 1.2-.6 1.1-1.2v-.2c-.1-.6-.7-1.1-1.3-1zm7 2.4h.2c.6 0 1.2-.6 1.1-1.2v-.2c-.1-.6-.6-1.1-1.3-1-.7 0-1.5.5-1.5 1.2s.7 1.2 1.5 1.2zm3.1 4.6c-.5.1-.9.5-1 1 .1.6.5.9 1 1 .6.1 1.2-.4 1.3-1-.2-.7-.7-1.1-1.3-1zm5.4 0c-.5.1-.9.5-1 1 .1.5.5.9 1 1 .6.1 1.2-.4 1.3-1-.1-.7-.7-1.1-1.3-1z"/><path class="st0" d="M21.3 0C9.6 0 .1 9.5.1 21.2s9.5 21.3 21.3 21.3S42.6 33 42.6 21.2 33.1 0 21.3 0zm-4 26.5c-1.2-.1-2.3-.2-3.5-.5l-3.5 1.7 1-2.9c-2.5-1.7-4-3.9-4-6.6 0-4.6 4.5-8.2 9.9-8.2 4.9 0 9.2 2.9 10 6.8-.3-.1-.6-.1-.9-.1-4.7 0-8.4 3.4-8.4 7.6 0 .7.1 1.4.3 2-.2.2-.6.2-.9.2zM31.8 30l.7 2.4-2.7-1.5c-.9.3-1.9.4-2.9.5-4.7 0-8.4-3.1-8.4-7s3.7-7 8.4-7c4.5 0 8.4 3.1 8.4 7 0 2.2-1.5 4.1-3.5 5.6z"/></svg>