<svg xmlns="http://www.w3.org/2000/svg" viewBox="0 0 59.79 49.16"><defs><clipPath id="clip-path" transform="translate(250.27 -1.46)"><path class="cls-1" d="M-234.18 17.24c-1.42 0-2.85-.93-2.85-2.31s1.43-2.3 2.85-2.3a2.2 2.2 0 012.36 2.3 2.22 2.22 0 01-2.36 2.31zm13.18-4.61a2.19 2.19 0 012.36 2.3 2.2 2.2 0 01-2.36 2.3c-1.41 0-2.84-.92-2.84-2.3s1.47-2.3 2.84-2.3zm10.16 5c.61 0 1.22.05 1.82.11-1.63-7.42-9.77-12.95-19.07-12.95-10.38 0-18.89 6.91-18.89 15.69 0 5.06 2.83 9.22 7.56 12.45l-1.89 5.54 6.6-3.23a32.79 32.79 0 006.62.93c.59 0 1.18 0 1.76-.08a13.36 13.36 0 01-.58-3.86c.04-8.07 7.14-14.61 16.11-14.61z"/></clipPath><clipPath id="clip-path-2" transform="translate(250.27 -1.46)"><path fill="none" d="M-817.64-3735.62H457.95V267.87H-817.64z"/></clipPath><clipPath id="clip-path-3" transform="translate(250.27 -1.46)"><path class="cls-1" d="M-204.64 29.76a2 2 0 01-1.87-1.85 2 2 0 011.87-1.85 2.15 2.15 0 012.36 1.85 2.15 2.15 0 01-2.36 1.85zm-10.37 0a2 2 0 01-1.89-1.85 2 2 0 011.9-1.85 2.15 2.15 0 012.36 1.85 2.14 2.14 0 01-2.36 1.85zm21.22 2.31c0-7.38-7.55-13.39-16-13.39-9 0-16 6-16 13.39s7.06 13.39 16 13.39a24.33 24.33 0 005.66-.93l5.13 2.77-1.42-4.61c3.81-2.78 6.63-6.46 6.63-10.62z"/></clipPath><style>.cls-1{fill:none;clip-rule:evenodd}.cls-4{clip-path:url(#clip-path-2)}.cls-5{fill:#fff}</style></defs><g id="图层_2" data-name="图层 2"><g id="图层_1-2" data-name="图层 1"><g class="cls-4" clip-path="url(#clip-path)"><path class="cls-5" d="M0 0h44.61v40.32H0z"/></g><g class="cls-4" clip-path="url(#clip-path-3)"><path class="cls-5" d="M21.09 13.89h38.7v35.27h-38.7z"/></g></g></g></svg>