<svg xmlns="http://www.w3.org/2000/svg" viewBox="0 0 60.74 49.27"><defs><clipPath id="a"><path d="M46.64 3.72a18.35 18.35 0 00-7.28.07c-.07 0-.14.07-.2.08A2.09 2.09 0 0039.68 8a10.26 10.26 0 001.92-.45 11.27 11.27 0 0110.51 5.12 9.25 9.25 0 01.65 6.94 6 6 0 00-.43 2 1.94 1.94 0 002.12 1.88c1 0 1.8-.13 2-1.76C60 10.36 52.26 5 46.64 3.72zm1.06 16.8a1.44 1.44 0 001.43-1.21.77.77 0 000-.15c1.09-9.63-8-8-8-8a1.44 1.44 0 100 2.88c6.52-1.42 5.09 5 5.09 5a1.44 1.44 0 001.48 1.48zM25.77 33.26a1 1 0 01-1.55-.15 1.27 1.27 0 01.38-1.66 1.08 1.08 0 011.64.14 1.37 1.37 0 01-.47 1.67zm-5.24 4.4c-1.66.19-3-.76-3-2.13a3.16 3.16 0 012.85-3c1.91-.18 3.15.9 3.15 2.28a3.18 3.18 0 01-3 2.85zm2.24-11.53c-8.89 1-7.86 9.23-7.86 9.23a4.51 4.51 0 002.38 3.93 10.39 10.39 0 0013.26-2.35c2.72-3.44 1.13-11.83-7.78-10.81zM24.53 43c-8.84.4-16-4-16-9.78s7.15-10.49 16-10.89 16 3.2 16 9-7.15 11.24-16 11.67zm18.84-18.9c-2.1-.4-1.08-1.51-1.08-1.51s2.05-3.34-.41-5.77c-3.05-3-10.47.38-10.47.38-2.83.86-2.08-.4-1.68-2.54 0-2.53-.87-6.81-8.42-4.29s-14 11.46-14 11.46C2.81 27.71 3.4 32.28 3.4 32.28c1.12 10.1 12 12.88 20.48 13.53 8.9.69 20.93-3 24.57-10.65s-2.98-10.67-5.08-11.09z" clip-rule="evenodd" fill="none"/></clipPath><clipPath id="b"><path fill="none" d="M3.37 3.37h53.99v42.52H3.37z"/></clipPath></defs><g clip-path="url(#a)" data-name="图层 2"><g clip-path="url(#b)" data-name="图层 1"><path fill="#fff" d="M0 0h60.74v49.27H0z"/></g></g></svg>